Normalized EMG Linear Envelopes
nRows=240
nColumns=4

endheader
time	 med_gas_r	  soleus_r	 tib_ant_r	
2.32863	  0.008412	  0.014995	  0.045709	
2.3619	  0.008240	  0.015475	  0.045870	
2.39516	  0.008119	  0.015939	  0.045965	
2.42843	  0.008061	  0.016363	  0.045964	
2.46169	  0.008067	  0.016710	  0.045821	
2.49496	  0.008140	  0.016941	  0.045497	
2.52823	  0.008282	  0.017031	  0.044988	
2.56149	  0.008476	  0.016981	  0.044348	
2.59476	  0.008678	  0.016809	  0.043672	
2.62802	  0.008829	  0.016543	  0.043062	
2.66129	  0.008877	  0.016213	  0.042586	
2.69456	  0.008806	  0.015850	  0.042268	
2.72782	  0.008641	  0.015501	  0.042095	
2.76109	  0.008437	  0.015228	  0.042039	
2.79435	  0.008267	  0.015098	  0.042064	
2.82762	  0.008195	  0.015155	  0.042132	
2.86089	  0.008260	  0.015402	  0.042215	
2.89415	  0.008461	  0.015816	  0.042305	
2.92742	  0.008748	  0.016362	  0.042419	
2.96069	  0.009040	  0.016997	  0.042578	
2.99395	  0.009258	  0.017662	  0.042787	
3.02722	  0.009354	  0.018274	  0.043015	
3.06048	  0.009329	  0.018757	  0.043214	
3.09375	  0.009222	  0.019067	  0.043344	
3.12702	  0.009084	  0.019210	  0.043392	
3.16028	  0.008961	  0.019213	  0.043379	
3.19355	  0.008877	  0.019104	  0.043329	
3.22681	  0.008839	  0.018909	  0.043251	
3.26008	  0.008838	  0.018675	  0.043131	
3.29335	  0.008853	  0.018471	  0.042942	
3.32661	  0.008861	  0.018363	  0.042669	
3.35988	  0.008839	  0.018380	  0.042332	
3.39315	  0.008772	  0.018501	  0.041984	
3.42641	  0.008654	  0.018683	  0.041701	
3.45968	  0.008494	  0.018902	  0.041558	
3.49294	  0.008315	  0.019164	  0.041602	
3.52621	  0.008151	  0.019486	  0.041839	
3.55948	  0.008037	  0.019872	  0.042218	
3.59274	  0.008001	  0.020284	  0.042654	
3.62601	  0.008060	  0.020645	  0.043060	
3.65927	  0.008224	  0.020848	  0.043383	
3.69254	  0.008495	  0.020793	  0.043613	
3.72581	  0.008859	  0.020441	  0.043767	
3.75907	  0.009282	  0.019848	  0.043867	
3.79234	  0.009700	  0.019157	  0.043928	
3.8256	  0.010036	  0.018535	  0.043955	
3.85887	  0.010227	  0.018097	  0.043954	
3.89214	  0.010246	  0.017869	  0.043924	
3.9254	  0.010115	  0.017811	  0.043861	
3.95867	  0.009886	  0.017885	  0.043770	
3.99194	  0.009620	  0.018106	  0.043672	
4.0252	  0.009374	  0.018516	  0.043604	
4.05847	  0.009188	  0.019109	  0.043603	
4.09173	  0.009087	  0.019770	  0.043686	
4.125	  0.009078	  0.020292	  0.043839	
4.15827	  0.009148	  0.020482	  0.044017	
4.19153	  0.009264	  0.020263	  0.044164	
4.2248	  0.009373	  0.019712	  0.044217	
4.25806	  0.009421	  0.019001	  0.044111	
4.29133	  0.009367	  0.018298	  0.043762	
4.3246	  0.009193	  0.017696	  0.043074	
4.35786	  0.008916	  0.017205	  0.041947	
4.39113	  0.008576	  0.016779	  0.040310	
4.4244	  0.008222	  0.016370	  0.038160	
4.45766	  0.007889	  0.015981	  0.035607	
4.49093	  0.007589	  0.015686	  0.032923	
4.52419	  0.007317	  0.015610	  0.030600	
4.55746	  0.007078	  0.015912	  0.029430	
4.59073	  0.006915	  0.016800	  0.030590	
4.62399	  0.006920	  0.018610	  0.035663	
4.65726	  0.007228	  0.021861	  0.046520	
4.69052	  0.007991	  0.027235	  0.064995	
4.72379	  0.009352	  0.035491	  0.092458	
4.75706	  0.011434	  0.047438	  0.129405	
4.79032	  0.014338	  0.063983	  0.175167	
4.82359	  0.018130	  0.086002	  0.227741	
4.85685	  0.022808	  0.113759	  0.283815	
4.89012	  0.028218	  0.145969	  0.339172	
4.92339	  0.033997	  0.179326	  0.389553	
4.95665	  0.039616	  0.209334	  0.431769	
4.98992	  0.044561	  0.232311	  0.464537	
5.02319	  0.048553	  0.247139	  0.488581	
5.05645	  0.051612	  0.255277	  0.505889	
5.08972	  0.053916	  0.258997	  0.518543	
5.12298	  0.055561	  0.259532	  0.527830	
5.15625	  0.056478	  0.256760	  0.534116	
5.18952	  0.056570	  0.250427	  0.537301	
5.22278	  0.055926	  0.241407	  0.537339	
5.25605	  0.054882	  0.231762	  0.534600	
5.28931	  0.053906	  0.223839	  0.530263	
5.32258	  0.053402	  0.219503	  0.526622	
5.35585	  0.053604	  0.220057	  0.526699	
5.38911	  0.054576	  0.226432	  0.532966	
5.42238	  0.056256	  0.238948	  0.545945	
5.45565	  0.058449	  0.256566	  0.563822	
5.48891	  0.060780	  0.276287	  0.583265	
5.52218	  0.062716	  0.293632	  0.600655	
5.55544	  0.063743	  0.304358	  0.613075	
5.58871	  0.063614	  0.306354	  0.619136	
5.62198	  0.062495	  0.300289	  0.619790	
5.65524	  0.060876	  0.288644	  0.618622	
5.68851	  0.059302	  0.274201	  0.620900	
5.72177	  0.058127	  0.259207	  0.631436	
5.75504	  0.057416	  0.245390	  0.652472	
5.78831	  0.057024	  0.234153	  0.682870	
5.82157	  0.056751	  0.226466	  0.718820	
5.85484	  0.056475	  0.222639	  0.755006	
5.8881	  0.056189	  0.222269	  0.785265	
5.92137	  0.055955	  0.224386	  0.802987	
5.95464	  0.055829	  0.227703	  0.802308	
5.9879	  0.055833	  0.230960	  0.780304	
6.02117	  0.055988	  0.233255	  0.738824	
6.05444	  0.056349	  0.234160	  0.684375	
6.0877	  0.056989	  0.233564	  0.625887	
6.12097	  0.057952	  0.231477	  0.571730	
6.15423	  0.059218	  0.228091	  0.527542	
6.1875	  0.060704	  0.223965	  0.495542	
6.22077	  0.062288	  0.219949	  0.475146	
6.25403	  0.063804	  0.216750	  0.464311	
6.2873	  0.065069	  0.214572	  0.460962	
6.32056	  0.065920	  0.213209	  0.463832	
6.35383	  0.066263	  0.212409	  0.472250	
6.3871	  0.066086	  0.212022	  0.485171	
6.42036	  0.065421	  0.211786	  0.500478	
6.45363	  0.064306	  0.211163	  0.515381	
6.4869	  0.062781	  0.209628	  0.527679	
6.52016	  0.060936	  0.207335	  0.536647	
6.55343	  0.058983	  0.205605	  0.542723	
6.58669	  0.057291	  0.206705	  0.546386	
6.61996	  0.056323	  0.212844	  0.547405	
6.65323	  0.056470	  0.224932	  0.544983	
6.68649	  0.057865	  0.241800	  0.538348	
6.71976	  0.060269	  0.260364	  0.527113	
6.75302	  0.063094	  0.276631	  0.511442	
6.78629	  0.065558	  0.287080	  0.492431	
6.81956	  0.066950	  0.289814	  0.472607	
6.85282	  0.066869	  0.285046	  0.455826	
6.88609	  0.065348	  0.274711	  0.446139	
6.91935	  0.062793	  0.261390	  0.446167	
6.95262	  0.059815	  0.247244	  0.456025	
6.98589	  0.057077	  0.233640	  0.473447	
7.01915	  0.055177	  0.221616	  0.494974	
7.05242	  0.054556	  0.212614	  0.517500	
7.08569	  0.055418	  0.208786	  0.539229	
7.11895	  0.057694	  0.212504	  0.559435	
7.15222	  0.061082	  0.225280	  0.577368	
7.18548	  0.065115	  0.246594	  0.591512	
7.21875	  0.069212	  0.273277	  0.600073	
7.25202	  0.072690	  0.299911	  0.602304	
7.28528	  0.074851	  0.320328	  0.599331	
7.31855	  0.075170	  0.329593	  0.593591	
7.35181	  0.073545	  0.325563	  0.587270	
7.38508	  0.070394	  0.309275	  0.581036	
7.41835	  0.066490	  0.284142	  0.574117	
7.45161	  0.062634	  0.254602	  0.565639	
7.48488	  0.059387	  0.224948	  0.555987	
7.51815	  0.057037	  0.198712	  0.546909	
7.55141	  0.055711	  0.178468	  0.540241	
7.58468	  0.055437	  0.165728	  0.536472	
7.61794	  0.056102	  0.160790	  0.534509	
7.65121	  0.057396	  0.162690	  0.532890	
7.68448	  0.058898	  0.169534	  0.531210	
7.71774	  0.060275	  0.179158	  0.530411	
7.75101	  0.061437	  0.189765	  0.531691	
7.78427	  0.062518	  0.200227	  0.535178	
7.81754	  0.063702	  0.210030	  0.539678	
7.85081	  0.065046	  0.219113	  0.543713	
7.88407	  0.066436	  0.227738	  0.546863	
7.91734	  0.067689	  0.236336	  0.550107	
7.9506	  0.068704	  0.245345	  0.554836	
7.98387	  0.069552	  0.255146	  0.561412	
8.01714	  0.070439	  0.266063	  0.568578	
8.0504	  0.071545	  0.278153	  0.574180	
8.08367	  0.072856	  0.290681	  0.576422	
8.11694	  0.074116	  0.301674	  0.574458	
8.1502	  0.074953	  0.308266	  0.568086	
8.18347	  0.075088	  0.308064	  0.557296	
8.21673	  0.074492	  0.300807	  0.542399	
8.25	  0.073411	  0.289093	  0.524558	
8.28327	  0.072253	  0.277424	  0.505931	
8.31653	  0.071419	  0.270075	  0.489019	
8.3498	  0.071159	  0.269198	  0.475702	
8.38306	  0.071520	  0.274364	  0.466832	
8.41633	  0.072402	  0.283567	  0.462769	
8.4496	  0.073637	  0.294682	  0.464254	
8.48286	  0.075055	  0.306327	  0.472694	
8.51613	  0.076511	  0.317871	  0.489505	
8.5494	  0.077897	  0.329059	  0.515035	
8.58266	  0.079148	  0.339594	  0.547772	
8.61593	  0.080173	  0.348745	  0.584122	
8.64919	  0.080775	  0.355055	  0.618761	
8.68246	  0.080653	  0.356618	  0.645680	
8.71573	  0.079585	  0.352133	  0.659992	
8.74899	  0.077658	  0.342094	  0.659936	
8.78226	  0.075348	  0.328981	  0.647846	
8.81552	  0.073306	  0.316045	  0.629068	
8.84879	  0.072011	  0.305510	  0.609189	
8.88206	  0.071536	  0.297617	  0.591262	
8.91532	  0.071575	  0.291118	  0.574872	
8.94859	  0.071661	  0.284608	  0.557595	
8.98185	  0.071395	  0.277548	  0.537668	
9.01512	  0.070567	  0.270441	  0.515905	
9.04839	  0.069159	  0.264415	  0.495599	
9.08165	  0.067319	  0.260738	  0.480755	
9.11492	  0.065322	  0.260479	  0.474175	
9.14819	  0.063522	  0.264236	  0.476662	
9.18145	  0.062272	  0.271837	  0.487368	
9.21472	  0.061820	  0.282090	  0.504337	
9.24798	  0.062174	  0.292746	  0.524673	
9.28125	  0.063036	  0.300802	  0.544643	
9.31452	  0.063841	  0.303219	  0.560297	
9.34778	  0.063955	  0.297950	  0.568482	
9.38105	  0.062945	  0.284889	  0.567507	
9.41431	  0.060777	  0.266119	  0.557005	
9.44758	  0.057786	  0.245049	  0.537448	
9.48085	  0.054455	  0.224832	  0.510038	
9.51411	  0.051154	  0.207088	  0.476996	
9.54738	  0.048010	  0.191732	  0.441501	
9.58065	  0.044948	  0.177797	  0.406704	
9.61391	  0.041825	  0.164461	  0.374390	
9.64718	  0.038545	  0.151540	  0.344350	
9.68044	  0.035105	  0.139279	  0.315019	
9.71371	  0.031565	  0.127832	  0.284764	
9.74698	  0.027994	  0.116914	  0.252823	
9.78024	  0.024453	  0.105916	  0.219450	
9.81351	  0.021021	  0.094370	  0.185597	
9.84677	  0.017834	  0.082423	  0.152620	
9.88004	  0.015091	  0.070935	  0.122109	
9.91331	  0.012986	  0.061076	  0.095630	
9.94657	  0.011623	  0.053700	  0.074327	
9.97984	  0.010957	  0.048942	  0.058589	
10.0131	  0.010818	  0.046280	  0.048016	
10.0464	  0.010984	  0.044905	  0.041688	
10.0796	  0.011257	  0.044013	  0.038530	
10.1129	  0.011490	  0.042858	  0.037561	
10.1462	  0.011581	  0.040683	  0.037985	
10.1794	  0.011459	  0.036810	  0.039194	
10.2127	  0.011096	  0.030908	  0.040741	
10.246	  0.010517	  0.023222	  0.042319	
10.2792	  0.009804	  0.014549	  0.043741	
